<svg width="277" height="71" viewBox="0 0 277 71" fill="none" xmlns="http://www.w3.org/2000/svg">
<path d="M12.853 55.5755C11.2578 55.4745 9.70303 55.1514 8.18861 54.6063C6.6742 54.0611 5.34151 53.324 4.19055 52.3952C3.05979 51.4462 2.21171 50.3356 1.64633 49.0635L7.00737 46.7616C7.26987 47.3068 7.72419 47.8419 8.37035 48.3668C9.03669 48.8918 9.81409 49.326 10.7025 49.6692C11.591 49.9923 12.5198 50.1539 13.4891 50.1539C14.4381 50.1539 15.3165 50.0226 16.1242 49.7601C16.952 49.4774 17.6285 49.0534 18.1535 48.488C18.6785 47.9226 18.941 47.2462 18.941 46.4587C18.941 45.5702 18.6381 44.8837 18.0323 44.3991C17.4468 43.8943 16.7097 43.5106 15.8213 43.2481C14.9328 42.9856 14.0444 42.7332 13.1559 42.4909C11.1771 42.0467 9.35976 41.4409 7.704 40.6736C6.06843 39.8861 4.76603 38.8866 3.7968 37.6751C2.82758 36.4433 2.34296 34.939 2.34296 33.1621C2.34296 31.2236 2.86796 29.5477 3.91796 28.1342C4.96795 26.7006 6.34103 25.6001 8.03717 24.8328C9.75351 24.0655 11.5809 23.6818 13.5194 23.6818C15.9424 23.6818 18.1636 24.1967 20.1828 25.2265C22.202 26.2563 23.7467 27.6698 24.8169 29.4669L19.8193 32.4352C19.5165 31.8294 19.0621 31.2842 18.4564 30.7996C17.8506 30.315 17.1641 29.9313 16.3968 29.6486C15.6295 29.3458 14.8319 29.1741 14.004 29.1337C12.9742 29.0934 12.015 29.2145 11.1266 29.4972C10.2583 29.7597 9.56169 30.1837 9.03669 30.7693C8.51169 31.3549 8.24919 32.102 8.24919 33.0107C8.24919 33.8991 8.56217 34.5655 9.18813 35.0097C9.81409 35.4337 10.6016 35.777 11.5506 36.0395C12.5198 36.302 13.5093 36.5948 14.5189 36.9179C16.316 37.4832 18.002 38.1799 19.577 39.0077C21.152 39.8154 22.4241 40.815 23.3934 42.0063C24.3626 43.1976 24.827 44.6515 24.7866 46.3678C24.7866 48.2659 24.2112 49.9317 23.0602 51.3654C21.9294 52.799 20.4554 53.8894 18.6381 54.6365C16.8208 55.3837 14.8924 55.6966 12.853 55.5755ZM53.1233 24.7116H59.4233V55H53.093L52.8507 50.6082C51.9622 52.163 50.7608 53.4149 49.2464 54.3639C47.732 55.313 45.9449 55.7875 43.8853 55.7875C41.6642 55.7875 39.5743 55.3736 37.6156 54.5457C35.657 53.6976 33.9306 52.5265 32.4363 51.0322C30.9623 49.538 29.8113 47.8217 28.9835 45.8832C28.1556 43.9246 27.7416 41.8246 27.7416 39.5832C27.7416 37.4227 28.1455 35.3933 28.9532 33.4953C29.7609 31.577 30.8815 29.901 32.3152 28.4674C33.7488 27.0338 35.4046 25.9131 37.2825 25.1054C39.1805 24.2775 41.2099 23.8636 43.3704 23.8636C45.5714 23.8636 47.5098 24.3684 49.1858 25.378C50.8819 26.3674 52.2853 27.6395 53.3959 29.1943L53.1233 24.7116ZM43.7339 49.6995C45.5108 49.6995 47.0656 49.2654 48.3983 48.3971C49.731 47.5087 50.7608 46.3173 51.4877 44.8231C52.2348 43.3289 52.6084 41.6731 52.6084 39.8558C52.6084 38.0183 52.2348 36.3525 51.4877 34.8582C50.7406 33.364 49.7007 32.1828 48.368 31.3145C47.0555 30.426 45.5108 29.9818 43.7339 29.9818C41.9772 29.9818 40.3719 30.426 38.918 31.3145C37.4642 32.203 36.3132 33.3943 35.4652 34.8885C34.6171 36.3828 34.1931 38.0385 34.1931 39.8558C34.1931 41.6933 34.6272 43.3592 35.4955 44.8534C36.3839 46.3274 37.545 47.5087 38.9786 48.3971C40.4325 49.2654 42.0176 49.6995 43.7339 49.6995ZM73.2513 17.8362V24.7116H81.7926V31.0116H73.2513V55H66.9513V31.0116H63.347V24.7116H66.9513V17.8362C66.9513 16.1804 67.3552 14.6761 68.1629 13.3232C68.9706 11.9501 70.0508 10.8598 71.4037 10.0521C72.7768 9.24439 74.3013 8.84055 75.9773 8.84055C77.1888 8.84055 78.37 9.08285 79.521 9.56746C80.672 10.0521 81.7018 10.7992 82.6104 11.8088L78.0975 16.2612C77.8753 15.8977 77.5624 15.6251 77.1585 15.4434C76.7749 15.2415 76.3811 15.1405 75.9773 15.1405C75.2302 15.1405 74.584 15.403 74.0388 15.928C73.5138 16.453 73.2513 17.0891 73.2513 17.8362ZM99.3807 55.7875C96.5942 55.7875 94.0499 55.0707 91.748 53.637C89.4663 52.2034 87.6389 50.2851 86.2658 47.8822C84.913 45.4592 84.2365 42.7837 84.2365 39.8558C84.2365 37.6347 84.6303 35.565 85.4178 33.6467C86.2053 31.7083 87.2855 30.0121 88.6586 28.5583C90.0519 27.0842 91.6673 25.9333 93.5048 25.1054C95.3423 24.2775 97.3009 23.8636 99.3807 23.8636C101.703 23.8636 103.833 24.3482 105.772 25.3174C107.71 26.2664 109.366 27.589 110.739 29.2852C112.112 30.9611 113.122 32.8996 113.768 35.1006C114.414 37.2813 114.606 39.6034 114.343 42.0669H90.9908C91.2533 43.4601 91.7581 44.7222 92.5052 45.8529C93.2725 46.9635 94.2418 47.8419 95.4129 48.488C96.6043 49.1342 97.9269 49.4673 99.3807 49.4875C100.915 49.4875 102.309 49.1039 103.56 48.3366C104.833 47.5693 105.873 46.5092 106.68 45.1563L113.071 46.6404C111.86 49.326 110.032 51.5269 107.589 53.2433C105.146 54.9394 102.41 55.7875 99.3807 55.7875ZM90.7788 37.251H107.983C107.781 35.7972 107.266 34.4847 106.438 33.3135C105.63 32.1222 104.61 31.1833 103.379 30.4967C102.167 29.79 100.835 29.4366 99.3807 29.4366C97.9471 29.4366 96.6144 29.7799 95.3826 30.4664C94.1711 31.153 93.1615 32.0919 92.3538 33.2832C91.5663 34.4544 91.0413 35.777 90.7788 37.251Z" fill="#A6D12E"/>
<path d="M142.349 24.7116H148.649V55.7875C148.649 57.8673 148.205 59.7856 147.317 61.5423C146.448 63.299 145.267 64.8134 143.773 66.0855C142.279 67.3778 140.562 68.3774 138.624 69.0841C136.706 69.7908 134.697 70.1442 132.597 70.1442C130.476 70.1442 128.437 69.6899 126.478 68.7812C124.52 67.8927 122.793 66.6812 121.299 65.1466C119.825 63.612 118.725 61.8755 117.998 59.937L123.783 57.3322C124.187 58.5841 124.833 59.6947 125.721 60.6639C126.63 61.6332 127.68 62.4005 128.871 62.9658C130.083 63.5312 131.325 63.8139 132.597 63.8139C133.849 63.8139 135.05 63.612 136.201 63.2081C137.372 62.8245 138.412 62.2793 139.321 61.5726C140.249 60.8658 140.986 60.0178 141.532 59.0284C142.077 58.0389 142.349 56.9586 142.349 55.7875V50.6688C141.36 52.2034 140.088 53.4452 138.533 54.3942C136.978 55.3231 135.171 55.7875 133.112 55.7875C130.971 55.7875 128.952 55.3736 127.054 54.5457C125.156 53.7178 123.49 52.5769 122.056 51.1231C120.623 49.6491 119.502 47.9529 118.694 46.0346C117.887 44.1164 117.483 42.0568 117.483 39.8558C117.483 37.6549 117.887 35.5953 118.694 33.677C119.502 31.7385 120.623 30.0424 122.056 28.5886C123.49 27.1145 125.156 25.9636 127.054 25.1357C128.952 24.3078 130.971 23.8939 133.112 23.8939C135.171 23.8939 136.978 24.3684 138.533 25.3174C140.088 26.2463 141.36 27.4881 142.349 29.0429V24.7116ZM133.172 49.6995C134.929 49.6995 136.463 49.2553 137.776 48.3668C139.088 47.4582 140.108 46.2568 140.835 44.7625C141.562 43.2683 141.925 41.6327 141.925 39.8558C141.925 38.0385 141.552 36.3929 140.805 34.9188C140.078 33.4246 139.058 32.2333 137.746 31.3448C136.433 30.4361 134.909 29.9818 133.172 29.9818C131.476 29.9818 129.921 30.426 128.508 31.3145C127.114 32.203 126.004 33.3943 125.176 34.8885C124.348 36.3828 123.934 38.0385 123.934 39.8558C123.934 41.6731 124.348 43.3289 125.176 44.8231C126.024 46.3173 127.145 47.5087 128.538 48.3971C129.951 49.2654 131.496 49.6995 133.172 49.6995ZM153.938 43.6419V24.7116H160.238V42.0972C160.238 43.45 160.571 44.6818 161.237 45.7923C161.903 46.9029 162.792 47.7914 163.902 48.4577C165.013 49.1039 166.235 49.4269 167.567 49.4269C168.92 49.4269 170.142 49.1039 171.232 48.4577C172.343 47.7914 173.221 46.9029 173.867 45.7923C174.534 44.6818 174.867 43.45 174.867 42.0972V24.7116H181.167L181.197 55H174.897L174.867 51.7289C173.837 52.9808 172.555 53.9702 171.02 54.6971C169.486 55.424 167.84 55.7875 166.083 55.7875C163.842 55.7875 161.802 55.2423 159.965 54.1519C158.127 53.0615 156.664 51.5976 155.573 49.7601C154.483 47.9226 153.938 45.8832 153.938 43.6419ZM210.422 24.7116H216.722V55H210.391L210.149 50.6082C209.261 52.163 208.059 53.4149 206.545 54.3639C205.03 55.313 203.243 55.7875 201.184 55.7875C198.962 55.7875 196.873 55.3736 194.914 54.5457C192.955 53.6976 191.229 52.5265 189.735 51.0322C188.261 49.538 187.11 47.8217 186.282 45.8832C185.454 43.9246 185.04 41.8246 185.04 39.5832C185.04 37.4227 185.444 35.3933 186.251 33.4953C187.059 31.577 188.18 29.901 189.613 28.4674C191.047 27.0338 192.703 25.9131 194.581 25.1054C196.479 24.2775 198.508 23.8636 200.669 23.8636C202.87 23.8636 204.808 24.3684 206.484 25.378C208.18 26.3674 209.584 27.6395 210.694 29.1943L210.422 24.7116ZM201.032 49.6995C202.809 49.6995 204.364 49.2654 205.697 48.3971C207.029 47.5087 208.059 46.3173 208.786 44.8231C209.533 43.3289 209.907 41.6731 209.907 39.8558C209.907 38.0183 209.533 36.3525 208.786 34.8582C208.039 33.364 206.999 32.1828 205.666 31.3145C204.354 30.426 202.809 29.9818 201.032 29.9818C199.275 29.9818 197.67 30.426 196.216 31.3145C194.763 32.203 193.612 33.3943 192.763 34.8885C191.915 36.3828 191.491 38.0385 191.491 39.8558C191.491 41.6933 191.925 43.3592 192.794 44.8534C193.682 46.3274 194.843 47.5087 196.277 48.3971C197.731 49.2654 199.316 49.6995 201.032 49.6995ZM222.766 55V24.7116H229.065V27.9222C230.115 26.6703 231.408 25.6809 232.942 24.954C234.477 24.227 236.133 23.8636 237.91 23.8636C239.04 23.8636 240.161 24.015 241.272 24.3179L238.758 30.6785C237.97 30.3756 237.183 30.2241 236.395 30.2241C235.063 30.2241 233.841 30.5573 232.73 31.2236C231.62 31.8698 230.731 32.7482 230.065 33.8587C229.399 34.9693 229.065 36.201 229.065 37.5539V55H222.766ZM266.947 9.56746H273.247V55H266.947V50.5476C265.957 52.1226 264.665 53.3947 263.07 54.3639C261.475 55.313 259.607 55.7875 257.467 55.7875C255.266 55.7875 253.206 55.3736 251.288 54.5457C249.369 53.7178 247.673 52.5769 246.199 51.1231C244.745 49.6491 243.605 47.9529 242.777 46.0346C241.949 44.1164 241.535 42.0568 241.535 39.8558C241.535 37.6549 241.949 35.5953 242.777 33.677C243.605 31.7385 244.745 30.0424 246.199 28.5886C247.673 27.1145 249.369 25.9636 251.288 25.1357C253.206 24.3078 255.266 23.8939 257.467 23.8939C259.607 23.8939 261.475 24.3785 263.07 25.3477C264.665 26.2967 265.957 27.5487 266.947 29.1035V9.56746ZM257.527 49.6995C259.304 49.6995 260.859 49.2654 262.191 48.3971C263.524 47.5087 264.554 46.3173 265.281 44.8231C266.028 43.3289 266.402 41.6731 266.402 39.8558C266.402 38.0183 266.028 36.3525 265.281 34.8582C264.534 33.364 263.494 32.1828 262.161 31.3145C260.849 30.426 259.304 29.9818 257.527 29.9818C255.77 29.9818 254.165 30.426 252.711 31.3145C251.278 32.203 250.127 33.3943 249.258 34.8885C248.41 36.3828 247.986 38.0385 247.986 39.8558C247.986 41.6933 248.42 43.3592 249.289 44.8534C250.177 46.3274 251.338 47.5087 252.772 48.3971C254.226 49.2654 255.811 49.6995 257.527 49.6995Z" fill="#88AD25"/>
</svg>
